<svg width="73" height="26" viewBox="0 0 73 26" fill="none" xmlns="http://www.w3.org/2000/svg">
<path d="M62.6654 13.9103C62.5272 15.1377 62.214 16.3125 61.5729 17.3854C60.437 19.2844 58.7361 20.2561 56.5192 20.3386C54.3292 20.4204 52.6496 19.5449 51.5325 17.6605C51.5186 17.637 51.4941 17.6184 51.4728 17.5949C51.3755 17.65 51.4188 17.7398 51.4188 17.8094C51.4147 18.4615 51.4115 19.1136 51.4197 19.7658C51.4221 19.9503 51.3853 20.0344 51.1711 20.0328C49.8299 20.0239 48.4896 20.0255 47.1485 20.0312C46.976 20.0312 46.904 19.9802 46.9277 19.8095C46.9343 19.7601 46.9286 19.7092 46.9286 19.659C46.9286 13.106 46.9286 6.553 46.9286 0H51.804C51.8065 2.49854 51.8097 4.99707 51.8122 7.4948C51.8122 7.61374 51.8122 7.73268 51.8122 7.84596C51.9234 7.89774 51.9479 7.80874 51.9896 7.76262C53.3675 6.22773 55.1102 5.61928 57.1505 5.8159C59.7926 6.06996 61.3136 7.67524 62.2181 9.99253C62.4593 10.6115 62.5967 11.2596 62.6678 11.9206C62.73 12.5841 62.73 13.2476 62.6654 13.9103ZM57.7025 12.9248C57.6886 12.4004 57.6125 11.8575 57.4081 11.3365C56.6083 9.2975 54.0913 8.81608 52.6733 10.4303C51.4303 11.8454 51.5145 14.5017 52.8442 15.8278C54.1624 17.1427 56.2468 16.8611 57.157 15.2437C57.5569 14.5325 57.6771 13.7541 57.7025 12.9248Z" fill="#2964AE"/>
<path d="M11.2615 8.51591C11.2615 7.81117 11.2795 7.10401 11.2533 6.39765C11.2411 6.08453 11.3384 6.01899 11.6401 6.02384C12.8995 6.04164 14.1588 6.03436 15.4181 6.02789C15.6103 6.02708 15.6798 6.07077 15.6798 6.27629C15.6692 10.5711 15.6815 14.8658 15.6528 19.1606C15.6447 20.4212 15.3977 21.6518 14.804 22.7911C13.9969 24.3373 12.6484 25.1755 10.9941 25.5849C9.19259 26.0308 7.36164 26.0769 5.51924 25.9118C4.31224 25.8034 3.13549 25.5558 1.9841 25.1828C1.84835 25.1391 1.74777 25.1092 1.76085 24.9287C1.84017 23.7782 1.90886 22.6268 1.98246 21.4755C1.98573 21.4277 2.00454 21.3808 2.02171 21.3112C2.85828 21.74 3.71692 22.0637 4.62708 22.2433C5.84226 22.4836 7.06398 22.5613 8.28325 22.2886C9.98745 21.9083 10.9777 20.7537 11.0873 19.0279C11.1159 18.5813 11.0914 18.1314 11.0914 17.6775C10.9802 17.6912 10.9598 17.794 10.9082 17.8579C9.64072 19.447 7.9725 20.1364 5.94529 20.0215C4.37439 19.9325 2.99566 19.4033 1.89496 18.2649C0.885037 17.2203 0.350227 15.9436 0.135158 14.5365C-0.132247 12.7824 -0.0234863 11.0476 0.640529 9.38651C1.58422 7.02472 3.41271 5.8515 5.93957 5.72852C8.17858 5.61929 9.91058 6.52145 11.1094 8.40425C11.138 8.44875 11.1437 8.52643 11.2631 8.51591H11.2615ZM10.9663 12.6367C10.9843 11.6601 10.6457 10.8308 9.90158 10.1786C8.30124 8.77563 6.02216 9.33149 5.32789 11.3025C4.98525 12.275 4.95254 13.2735 5.26002 14.2598C5.57158 15.259 6.18571 16.0099 7.26024 16.2502C8.34049 16.4913 9.2711 16.1547 10.0144 15.3586C10.7267 14.5948 10.9516 13.6481 10.9663 12.6367Z" fill="#2964AE"/>
<path d="M24.1337 20.3144C22.1899 20.3152 20.5561 19.9843 19.0751 19.0967C16.9997 17.8531 15.9333 15.9953 15.7845 13.6222C15.6414 11.3446 16.2612 9.33311 18.0251 7.76667C19.1831 6.73829 20.5724 6.18081 22.0926 5.93484C23.9685 5.63142 25.8199 5.73013 27.5977 6.43649C30.3061 7.51261 31.8165 9.49493 32.0659 12.381C32.2344 14.3245 31.8059 16.1118 30.5261 17.6386C29.3764 19.0101 27.848 19.7472 26.1135 20.1097C25.3865 20.2618 24.6489 20.3217 24.1337 20.3144ZM27.0768 13.0162C27.0866 12.3365 26.9869 11.6253 26.6925 10.9513C26.2174 9.86146 25.3963 9.22711 24.1787 9.15429C22.9112 9.07905 21.8767 9.51273 21.3125 10.6754C20.5512 12.2451 20.552 13.8609 21.3125 15.4346C21.8285 16.501 22.7722 16.9647 23.9399 16.9614C25.1085 16.9582 26.0146 16.4703 26.5666 15.4217C26.955 14.6838 27.085 13.8884 27.0768 13.0162Z" fill="#F9BC15"/>
<path d="M38.3087 16.001C38.563 15.1296 38.8149 14.2703 39.0651 13.4102C39.7455 11.0719 40.4283 8.73439 41.1013 6.39444C41.1634 6.1784 41.2444 6.09021 41.4881 6.09264C42.8586 6.10558 44.23 6.10316 45.6006 6.09507C45.8516 6.09345 45.944 6.11529 45.8385 6.40253C44.194 10.8502 42.5585 15.3019 40.9279 19.7545C40.8584 19.9438 40.775 20.0158 40.5624 20.0142C38.9277 20.0045 37.2922 20.0045 35.6575 20.0142C35.449 20.015 35.359 19.9527 35.2887 19.7602C33.6516 15.2987 32.0087 10.8397 30.3577 6.38311C30.2554 6.10639 30.3511 6.09507 30.5817 6.09587C32.0847 6.10235 33.5878 6.10478 35.0908 6.09345C35.3296 6.09183 35.4146 6.16627 35.4784 6.38877C36.3673 9.50062 37.2668 12.61 38.168 15.7186C38.1942 15.8076 38.1844 15.9209 38.3087 16.001Z" fill="#49AD46"/>
<path d="M62.712 11.6043C62.7153 9.86876 62.7186 8.13322 62.7096 6.39767C62.7087 6.1695 62.7578 6.0894 63.0064 6.09183C64.2854 6.10477 65.5652 6.10558 66.8449 6.09183C67.1132 6.08859 67.1614 6.18326 67.1573 6.42114C67.1434 7.15257 67.1524 7.88482 67.1524 8.62111C67.2612 8.61302 67.2555 8.52645 67.2784 8.47062C68.0413 6.65092 69.8911 5.57723 71.8709 5.80783C72.1734 5.84262 72.4752 5.87903 72.7777 5.90654C72.956 5.92272 73.0092 5.99959 72.9969 6.18083C72.9143 7.35081 72.8383 8.52159 72.7753 9.69318C72.763 9.91893 72.7041 9.94644 72.4858 9.90436C71.7228 9.7563 70.9476 9.72474 70.1887 9.90194C68.8345 10.2191 68.1223 11.1625 67.7805 12.4312C67.6177 13.0356 67.5785 13.6554 67.5801 14.2792C67.5842 16.0949 67.5768 17.9105 67.5875 19.7262C67.5891 19.9657 67.5196 20.0304 67.2808 20.0288C65.8596 20.0191 64.4375 20.0191 63.0162 20.0288C62.7823 20.0304 62.7079 19.9721 62.7087 19.7294C62.7194 17.8935 62.7153 16.0577 62.712 14.2218" fill="#F9BD15"/>
<path d="M44.1833 15.7728C45.455 15.7712 46.4902 16.7907 46.4935 18.0472C46.4968 19.2925 45.4484 20.3314 44.1866 20.3338C42.9265 20.3354 41.8781 19.3006 41.8765 18.0513C41.8748 16.798 42.9101 15.7753 44.1833 15.7728Z" fill="#2964AE"/>
</svg>
